<?xml version="1.0" encoding="utf-8"?>
<!-- Generator: Adobe Illustrator 25.0.0, SVG Export Plug-In . SVG Version: 6.00 Build 0)  -->
<svg version="1.1" xmlns="http://www.w3.org/2000/svg" xmlns:xlink="http://www.w3.org/1999/xlink" x="0px" y="0px"
	 viewBox="0 0 500 500" style="enable-background:new 0 0 500 500;" xml:space="preserve">
<style type="text/css">
	.st0{display:none;}
	.st1{display:inline;}
	.st2{fill:#070C49;}
	.st3{fill:#2581FC;}
	.st4{fill:#FFFFFF;}
</style>
<g id="Capa_3" class="st0">
	<g class="st1">
		<g>
			<path class="st2" d="M91.9,248.7c3.5,7.1,9.4,12.5,14.6,17.3c1.6,1.4,3,2.8,4.4,4.2c1.4,1.4,3.4,2.2,5.3,2.2
				c1.9,0,3.8-0.7,5.3-2.2c2.9-2.9,2.9-7.7,0-10.6c-1.6-1.6-3.2-3.1-4.8-4.6c-4.4-4.2-9-8.4-11.4-13.1c-2.4-4.8-2.6-10.6-0.5-15.4
				c2-4.6,5.9-8.3,10.7-10.1c4.6-1.8,9.5-1.6,13.7,0.4c5.4,2.6,10.1,7.7,14.8,12.7c1.4,1.5,2.9,3.1,4.4,4.6c0.3,0.3,0.6,0.6,1,0.8
				l9.1,9.1c2.4-16.8,16.8-29.7,34.2-29.7c18.3,0,33.3,14.3,34.4,32.2c0.5,7.6-1.8,15.1-6.1,21.6c-5.1,7.6-12.9,12.7-21.8,14.4
				c-9.9,1.9-20.2-0.7-28-7.1c-1.8-1.5-4.2-2.1-6.5-1.6c-2.3,0.5-4.3,1.9-5.4,4l-0.1,0.1c-1.8,3.3-1,7.4,1.9,9.8
				c9,7.4,20.2,11.3,31.6,11.3c3.1,0,6.3-0.3,9.4-0.9c24.7-4.7,41.2-27.1,40-51.5c-0.1,0,0,0,0,0c-1.2-26.2-22.9-47.1-49.4-47.1
				c-15.3,0-29,7-38.1,17.9c-0.2,0.3-0.5,0.5-0.7,0.8l-0.1,0.1c-5-5.3-10.8-11.1-18.1-14.6c-8-3.8-17-4.2-25.5-1
				c-8.7,3.3-15.7,9.9-19.3,18.3C87.1,229.7,87.4,239.9,91.9,248.7z"/>
			<path class="st2" d="M83,279.3c5,5.9,10.8,12.5,18.4,16.7c4.6,2.5,9.8,3.8,15,3.8c3.5,0,6.9-0.5,10.3-1.6
				c8.8-2.9,16.1-9.2,20.1-17.3c4.2-8.8,4.3-18.9,0.3-28c-3.2-7.3-8.8-13-13.7-18c-1.5-1.5-2.9-2.9-4.2-4.4
				c-2.8-3.1-7.5-3.3-10.5-0.5c-3.1,2.8-3.3,7.5-0.5,10.5c1.5,1.6,3.1,3.2,4.6,4.8c4.3,4.4,8.6,8.8,10.7,13.5
				c2.2,4.9,2.1,10.7-0.1,15.4c-2.1,4.5-6.2,8-11.2,9.6c-4.8,1.5-9.7,1.2-13.7-1.1c-5.2-2.8-9.8-8.1-14.2-13.3
				c-1.4-1.6-2.7-3.2-4.2-4.8c-2.8-3.1-7.5-3.3-10.5-0.5c-3.1,2.8-3.3,7.5-0.5,10.5C80.3,276.2,81.6,277.7,83,279.3z"/>
			<path class="st2" d="M409.3,251.8c0,0.1,0,0.1,0,0.2c-0.1,10.6,0.1,22.7,0.2,32.7c0.1,5.7,0.1,10.7,0.1,14.6
				c8.4-0.7,14.8-7.4,15.2-16.1c0.1-4.2,0.4-20.3,0.3-31.4c0,0,0,0.7,0,0v-43.3c0-4.4-3.6-7.9-7.9-7.9c-4.4,0-7.9,3.6-7.9,7.9V251.8
				z"/>
			<path class="st2" d="M242.2,246.5C242.2,246.5,242.2,246.5,242.2,246.5C242.3,246.5,242.2,246.5,242.2,246.5z"/>
			<path class="st2" d="M399.2,227c-2.8-16.2-18.6-27.4-35.3-26.6c-9.5,0.5-18.3,4.8-24.3,11.6c-3.1-3.5-6.9-6.3-11.2-8.3
				c-4-2.1-8.4-3.2-13.2-3.3c-1.2-0.1-2.4-0.1-3.6,0c-8.3,0.4-16,3.8-21.9,9c-1.2,0.9-2.4,1.9-3.6,2.9c-6-6.5-13.4-10.5-22.3-11.7
				c-10-1.3-19.9,2.2-27.2,8.5c3.8,4.2,6.9,8.9,9.4,14.1c3.3-4,8.2-6.4,13.9-6.4c10.3,0.1,18,8.2,18.1,19.2
				c0.1,10.9,0.1,52.8,0.1,63.6c0,0.3,0.2,0.6,0.3,0.8c8.7,0.2,15.5-6.3,16-15.6c0.3-4.9,0.3-40.9,0.1-45.8c-0.1-2.9,0-5.6,0.6-8.2
				c1.9-8.2,9.4-14,17.9-14.1c3.9-0.1,7.6,1.1,10.6,3.1c1.7,1.2,3.3,2.7,4.7,4.4c0,0,0,0,0,0c1.5,2,2.7,4.3,3.3,6.8c0,0,0,0,0,0
				c-1,14.2-0.1,56.5-0.1,69.5c8.9-0.1,15.7-6.7,16-15.8c0.2-6.1,0-43.4,0.1-49.5c0.1-10.4,7.7-18.4,17.7-18.6
				c10.2-0.2,18.4,7.5,18.7,18.1c0.3,10,0.1,51.1,0.1,61.1c0,1.5,0,2.9,0,4.4c7.5,0.8,15.4-4.9,15.8-12.5
				C400.5,278,400.9,236.6,399.2,227z"/>
		</g>
		<path class="st3" d="M217.2,245.5c-7,3.5-12.3,2.6-15.7-2.4c-3.3-4.9-2.2-10.2,3.3-15.1c-6.2-5.4-19.2-4.5-27.2,1.9
			c-9.3,7.4-11.9,20.4-6.2,31c5.6,10.4,18.2,15.3,29.5,11.5C212.1,268.6,219,257.5,217.2,245.5z"/>
	</g>
</g>
<g id="Capa_3_copia">
	<g>
		<g>
			<path class="st2" d="M77.6,249.1c3.5,7.1,9.4,12.5,14.6,17.3c1.6,1.4,3,2.8,4.4,4.2c1.4,1.4,3.4,2.2,5.3,2.2
				c1.9,0,3.8-0.7,5.3-2.2c2.9-2.9,2.9-7.7,0-10.6c-1.6-1.6-3.2-3.1-4.8-4.6c-4.4-4.2-9-8.4-11.4-13.1c-2.4-4.8-2.6-10.6-0.5-15.4
				c2-4.6,5.9-8.3,10.7-10.1c4.6-1.8,9.5-1.6,13.7,0.4c5.4,2.6,10.1,7.7,14.8,12.7c1.4,1.5,2.9,3.1,4.4,4.6c0.3,0.3,0.6,0.6,1,0.8
				l9.1,9.1c2.4-16.8,16.8-29.7,34.2-29.7c18.3,0,33.3,14.3,34.4,32.2c0.5,7.6-1.8,15.1-6.1,21.6c-5.1,7.6-12.9,12.7-21.8,14.4
				c-9.9,1.9-20.2-0.7-28-7.1c-1.8-1.5-4.2-2.1-6.5-1.6c-2.3,0.5-4.3,1.9-5.4,4l-0.1,0.1c-1.8,3.3-1,7.4,1.9,9.8
				c9,7.4,20.2,11.3,31.6,11.3c3.1,0,6.3-0.3,9.4-0.9c24.7-4.7,41.2-27.1,40-51.5c-0.1,0,0,0,0,0c-1.2-26.2-22.9-47.1-49.4-47.1
				c-15.3,0-29,7-38.1,17.9c-0.2,0.3-0.5,0.5-0.7,0.8l-0.1,0.1c-5-5.3-10.8-11.1-18.1-14.6c-8-3.8-17-4.2-25.5-1
				c-8.7,3.3-15.7,9.9-19.3,18.3C72.8,230.1,73.2,240.3,77.6,249.1z"/>
			<path class="st2" d="M68.7,279.7c5,5.9,10.8,12.5,18.4,16.7c4.6,2.5,9.8,3.8,15,3.8c3.5,0,6.9-0.5,10.3-1.6
				c8.8-2.9,16.1-9.2,20.1-17.3c4.2-8.8,4.3-18.9,0.3-28c-3.2-7.3-8.8-13-13.7-18c-1.5-1.5-2.9-2.9-4.2-4.4
				c-2.8-3.1-7.5-3.3-10.5-0.5c-3.1,2.8-3.3,7.5-0.5,10.5c1.5,1.6,3.1,3.2,4.6,4.8c4.3,4.4,8.6,8.8,10.7,13.5
				c2.2,4.9,2.1,10.7-0.1,15.4c-2.1,4.5-6.2,8-11.2,9.6c-4.8,1.5-9.7,1.2-13.7-1.1c-5.2-2.8-9.8-8.1-14.2-13.3
				c-1.4-1.6-2.7-3.2-4.2-4.8c-2.8-3.1-7.5-3.3-10.5-0.5c-3.1,2.8-3.3,7.5-0.5,10.5C66,276.6,67.3,278.1,68.7,279.7z"/>
			<path class="st2" d="M407.5,296.1c2.7-2.3,4.2-5.2,4.4-8.4c0.6-9.4,1-51.1-0.7-60.8c-2.4-14.2-15.5-25.2-31.1-26l-0.1,0
				c-0.4,0-0.7,0-1,0l-0.2,0c-0.3,0-0.6,0-0.9,0l-0.2,0c-0.3,0-0.6,0-1,0l-0.2-0.7c0,0,0,0,0,0l0,0.8c-15.6,0.8-28.6,11.7-31.1,26
				c-1.1,6.6-1.3,29-1.1,47.1l0,0l0,0c0,3.8,0.3,8.1,0.3,11.5c0.1,5.8,0.1,10.9,0.1,14.3c8.2-0.4,14.2-6.6,14.5-15
				c0.1-3.8,0.1-19.6,0.1-32.3c0-7.9,0-14.8,0-17.1c0.1-8.5,5.1-15.7,12.7-18.3l0.4-0.1c0.4-0.1,0.8-0.2,1.2-0.3
				c0.2-0.1,0.5-0.1,0.7-0.2c0.3-0.1,0.7-0.1,1-0.2c0.3,0,0.6-0.1,0.9-0.1c0.3,0,0.6,0,0.9-0.1c0.7,0,1.3,0,2,0c0.3,0,0.6,0,0.9,0.1
				c0.3,0,0.6,0.1,0.9,0.1c0.3,0.1,0.7,0.1,1,0.2c0.2,0,0.5,0.1,0.7,0.2c0.4,0.1,0.8,0.2,1.2,0.3l0.3,0.1
				c7.7,2.6,12.7,9.8,12.8,18.3c0,2.3,0,9.2,0,17.1c0,5.9,0.3,12.6,0.3,18.3l0,0l0,12.2c0,5.7,0,10.4,0,13v3.7
				C401,299.8,404.7,298.5,407.5,296.1z"/>
			<path class="st2" d="M423,281.8l0.1,5c0.1,4.5,0.1,8.3,0.1,11.6c7.7-1.1,13.4-7.4,13.7-15.3c0.1-4.2,0.4-20.2,0.3-31h0v-43.6
				c0-4-3.2-7.2-7.2-7.2s-7.2,3.2-7.2,7.2v43.3l0,0.1C422.7,261.4,422.9,272.2,423,281.8z"/>
			<path class="st2" d="M317.9,300.1l0,0.2c1-0.1,1.9-0.2,2.9-0.4c5.9-1.1,10.4-5.6,11.1-10.9c0.3-1.3,0.5-2.5,0.5-3.7
				c0.1-3.8,0.1-19.8,0.1-32.6l0-1.5c-0.1-11.9-0.5-20.1-1.1-23.6c-1.4-8.3-6.5-15.7-14.1-20.5l0,0l-1.2-0.8l0,0
				c-0.2-0.1-0.4-0.3-0.6-0.4c-0.6-0.4-1.1-0.8-1.7-1.1c-3.9-2.1-8.2-3.2-12.9-3.2c-0.8,0-1.6-0.1-2.5,0l-0.5,0c-0.1,0-0.3,0-0.4,0
				l-0.6,0c-8.8,0.4-17.3,4.4-23.3,10.8l-0.1,0.1c-0.2,0.2-0.4,0.3-0.6,0.5l-0.6,0.5l-0.5-0.5c-3-3.3-6.8-6.1-10.9-8
				c-3.9-2.1-8.2-3.2-12.9-3.2c-0.7,0-1.4,0-2.1,0c-8-0.1-16.2,2.8-22.6,8.1c3.4,3.9,6.2,8.1,8.5,12.7c3.4-3.6,8-5.6,13.1-5.8l0.6,0
				l0,0c0,0,0.1,0,0.1,0c10.8,0.1,18.7,8.5,18.8,19.9c0,6.3,0.1,23.2,0.1,38.2c0,10.9,0,20.9,0,25.5c0,0,0,0,0,0.1l0.4,0v0.1
				c8.2-0.4,14.2-6.6,14.5-15c0.1-2.8,0.1-12.2,0.1-20.1c0-6.2,0-12.5,0-17.2c0-6.1,0-10.4,0-12.2c0-3.9,1.1-7.6,3.1-10.7
				c3.4-5.1,9.3-8.4,15.6-8.6c0.1,0,0.2,0,0.2,0c10.6,0,18.8,8,19.1,18.8c0,1.6,0.1,4.3,0.1,7.8c-0.2,10.1-0.1,23.4,0,32.5l0,8.4
				c0,5.4,0,9.8,0,12.3v3.7L317.9,300.1z"/>
		</g>
		<path class="st3" d="M202.9,245.9c-7,3.5-12.3,2.6-15.7-2.4c-3.3-4.9-2.2-10.2,3.3-15.1c-6.2-5.4-19.2-4.5-27.2,1.9
			c-9.3,7.4-11.9,20.4-6.2,31c5.6,10.4,18.2,15.3,29.5,11.5C197.9,269,204.7,257.9,202.9,245.9z"/>
	</g>
</g>
<g id="Capa_2" class="st0">
	<g class="st1">
		<g>
			<path class="st2" d="M304.9,246.8h-46.5c-6.6,0-12-5.4-12-12v-46.5c0-6.6,5.4-12,12-12h46.5c6.6,0,12,5.4,12,12v46.5
				C317,241.4,311.6,246.8,304.9,246.8z"/>
			<path class="st4" d="M258.7,209.8c1.2,2.4,3.2,4.3,4.9,5.9c0.5,0.5,1,0.9,1.5,1.4c0.5,0.5,1.2,0.7,1.8,0.7c0.6,0,1.3-0.3,1.8-0.7
				c1-1,1-2.6,0-3.6c-0.5-0.5-1.1-1-1.6-1.5c-1.5-1.4-3.1-2.9-3.9-4.4c-0.8-1.6-0.9-3.6-0.2-5.2c0.7-1.6,2-2.8,3.7-3.4
				c1.6-0.6,3.2-0.6,4.7,0.1c1.8,0.9,3.4,2.6,5,4.3c0.5,0.5,1,1,1.5,1.5c0.1,0.1,0.2,0.2,0.3,0.3c0,0,0,0,0,0l3.1,3.1c0,0,0,0,0,0
				c0.8-5.7,5.7-10.1,11.6-10.1c6.2,0,11.3,4.8,11.7,11c0.2,2.6-0.6,5.1-2.1,7.3c-1.7,2.6-4.4,4.3-7.4,4.9c-3.4,0.6-6.8-0.2-9.5-2.4
				c-0.3-0.3-0.7-0.5-1.1-0.6c-1.3-0.3-2.5,0.3-3,1.3l0,0c-0.6,1.1-0.4,2.5,0.6,3.3c3.1,2.5,6.9,3.8,10.7,3.8c1.1,0,2.1-0.1,3.2-0.3
				c8.4-1.6,14-9.2,13.6-17.5c0,0,0,0,0,0c-0.4-8.9-7.8-16-16.8-16c-5.2,0-9.9,2.4-12.9,6.1c0,0,0,0,0,0c-0.1,0.1-0.2,0.2-0.3,0.3
				l0,0c-1.7-1.8-3.7-3.8-6.2-5c-2.7-1.3-5.8-1.4-8.7-0.3c-3,1.1-5.3,3.4-6.5,6.2C257,203.4,257.1,206.8,258.7,209.8z"/>
			<path class="st4" d="M255.6,220.2c1.7,2,3.7,4.3,6.3,5.7c1.6,0.9,3.3,1.3,5.1,1.3c1.2,0,2.4-0.2,3.5-0.5c3-1,5.5-3.1,6.8-5.9
				c1.4-3,1.5-6.4,0.1-9.5c-1.1-2.5-3-4.4-4.7-6.1c-0.5-0.5-1-1-1.4-1.5c-0.9-1-2.5-1.1-3.6-0.2c-1,0.9-1.1,2.5-0.2,3.6
				c0.5,0.6,1,1.1,1.5,1.6c1.5,1.5,2.9,3,3.7,4.6c0.7,1.7,0.7,3.6,0,5.2c-0.7,1.5-2.1,2.7-3.8,3.3c-1.6,0.5-3.3,0.4-4.7-0.4
				c-1.8-0.9-3.3-2.8-4.8-4.5c-0.4-0.5-0.9-1-1.3-1.5c-0.9-1-2.6-1.2-3.6-0.3c-1.1,0.9-1.1,2.6-0.2,3.6
				C254.7,219.2,255.2,219.7,255.6,220.2z"/>
		</g>
		<path class="st3" d="M301.3,208.8C301.2,208.8,301.2,208.8,301.3,208.8c-2.4,1.2-4.2,0.9-5.3-0.8c-1.1-1.7-0.7-3.5,1.1-5.1
			c0,0,0,0,0,0c-2.1-1.8-6.5-1.5-9.3,0.6c-3.2,2.5-4,7-2.1,10.5c1.9,3.5,6.2,5.2,10,3.9C299.5,216.6,301.8,212.8,301.3,208.8z"/>
	</g>
</g>
</svg>
